Coordinates
version=1
nRows=11
nColumns=63
inDegrees=yes

Units are S.I. units (second, meters, Newtons, ...)
If the header above contains a line with 'inDegrees', this indicates whether rotational values are in degrees (yes) or radians (no).

endheader
time	pelvis_tilt	pelvis_list	pelvis_rotation	pelvis_tx	pelvis_ty	pelvis_tz	hip_flexion_r	hip_adduction_r	hip_rotation_r	knee_angle_r	knee_angle_r_beta	ankle_angle_r	subtalar_angle_r	mtp_angle_r	hip_flexion_l	hip_adduction_l	hip_rotation_l	knee_angle_l	knee_angle_l_beta	ankle_angle_l	subtalar_angle_l	mtp_angle_l	L5_S1_Flex_Ext	L5_S1_Lat_Bending	L5_S1_axial_rotation	L4_L5_Flex_Ext	L4_L5_Lat_Bending	L4_L5_axial_rotation	L3_L4_Flex_Ext	L3_L4_Lat_Bending	L3_L4_axial_rotation	L2_L3_Flex_Ext	L2_L3_Lat_Bending	L2_L3_axial_rotation	L1_L2_Flex_Ext	L1_L2_Lat_Bending	L1_L2_axial_rotation	L1_T12_Flex_Ext	L1_T12_Lat_Bending	L1_T12_axial_rotation	Abs_r3	Abs_r2	Abs_r1	Abs_t1	Abs_t2	neck_flexion	neck_bending	neck_rotation	arm_flex_r	arm_add_r	arm_rot_r	elbow_flex_r	pro_sup_r	wrist_flex_r	wrist_dev_r	arm_flex_l	arm_add_l	arm_rot_l	elbow_flex_l	pro_sup_l	wrist_flex_l	wrist_dev_l
2.964912	6.268041	2.941591	89.208196	0.170993	1.008323	0.478681	5.554482	4.565308	3.552967	20.319616	0.354644	33.146152	-4.561136	0.000000	7.814041	-5.624970	3.282279	25.450402	0.444193	38.407308	-6.097110	0.000000	-0.009326	0.873587	0.754521	-0.017319	1.161871	0.801678	-0.015321	2.124039	0.801678	-0.010659	2.124039	0.660206	-0.008660	1.781419	0.613048	-0.005329	1.353186	0.565891	-0.066614	9.882191	4.196419	0.000000	0.000000	-6.483635	-6.009457	0.017141	13.555291	-27.979840	62.426650	67.737454	29.352624	-0.279747	13.042522	22.105343	11.719120	199.995182	0.126622	1.501495	-69.212061	-23.948300
2.982456	6.106247	3.005028	88.999350	0.171107	1.008262	0.478619	5.520108	4.417125	3.813030	20.360859	0.355364	33.224490	-4.601087	0.000000	7.602039	-5.510492	2.800871	25.209834	0.439995	38.395244	-5.813755	0.000000	-0.003441	0.849704	0.777962	-0.006391	1.130107	0.826584	-0.005654	2.065971	0.826584	-0.003933	2.065971	0.680716	-0.003196	1.732717	0.632094	-0.001966	1.316192	0.583471	-0.024582	9.612024	4.326789	0.000000	0.000000	-5.623808	-6.097972	-0.310301	13.512873	-27.996445	62.290594	68.000632	28.301612	0.145889	13.840588	22.108091	11.595721	200.295358	0.126962	1.546133	-69.193088	-23.967329
3.000000	5.952595	3.069253	88.771193	0.171331	1.008131	0.478323	5.490371	4.295903	4.124902	20.432261	0.356610	33.328936	-4.715216	0.000000	7.380787	-5.399753	2.349897	25.000802	0.436346	38.402902	-5.614997	0.000000	0.000311	0.825325	0.825029	0.000578	1.097682	0.876593	0.000511	2.006694	0.876593	0.000356	2.006694	0.721900	0.000289	1.683002	0.670336	0.000178	1.278428	0.618772	0.002223	9.336238	4.588562	0.000000	0.000000	-4.698347	-6.073669	-0.869889	13.258934	-28.016441	61.955548	68.330186	27.727519	0.362962	14.354917	22.099622	11.498722	200.654006	0.127597	1.592910	-69.167720	-23.984225
3.017544	5.807073	3.148792	88.581192	0.171614	1.007966	0.477799	5.450099	4.190582	4.393888	20.536723	0.358433	33.479802	-4.838910	0.000000	7.154148	-5.294014	1.951180	24.838333	0.433511	38.440330	-5.454314	0.000000	0.000294	0.800820	0.870546	0.000546	1.065090	0.924955	0.000483	1.947113	0.924955	0.000336	1.947113	0.761728	0.000273	1.633032	0.707319	0.000168	1.240470	0.652910	0.002099	9.059034	4.841716	0.000000	0.000000	-3.743205	-5.918245	-1.484507	12.942443	-28.015525	61.599853	68.647434	27.486349	0.542326	14.742840	22.070937	11.396078	200.992694	0.128330	1.635952	-69.139918	-23.988483
3.035088	5.681173	3.233993	88.450866	0.171863	1.007761	0.477047	5.398993	4.101041	4.565154	20.656637	0.360526	33.673154	-4.921240	0.000000	6.931119	-5.194462	1.647509	24.711437	0.431296	38.504498	-5.351096	0.000000	-0.000991	0.778223	0.911527	-0.001840	1.035037	0.968497	-0.001628	1.892172	0.968497	-0.001132	1.892172	0.797586	-0.000920	1.586953	0.740616	-0.000566	1.205468	0.683645	-0.007077	8.803418	5.069639	0.000000	0.000000	-2.747924	-5.656205	-2.163598	12.554910	-28.005904	61.203066	68.950780	27.683397	0.678565	14.990537	22.007770	11.304507	201.270384	0.129475	1.671326	-69.103437	-23.983108
3.052632	5.574042	3.328980	88.377878	0.172037	1.007541	0.476086	5.326172	4.028516	4.673489	20.782310	0.362720	33.896204	-4.997859	0.000000	6.696510	-5.098395	1.438613	24.595464	0.429272	38.599138	-5.304346	0.000000	-0.003429	0.758075	0.948210	-0.006368	1.008240	1.007473	-0.005634	1.843184	1.007473	-0.003919	1.843184	0.829683	-0.003184	1.545867	0.770420	-0.001959	1.174259	0.711157	-0.024495	8.575499	5.273658	0.000000	0.000000	-1.704926	-5.317789	-2.885765	12.123010	-27.991963	60.786685	69.218923	28.329401	0.823920	15.114635	21.900380	11.233407	201.434326	0.131123	1.697322	-69.059227	-23.970012
3.070175	5.488235	3.431441	88.382928	0.172080	1.007323	0.474947	5.224078	3.976824	4.733598	20.895896	0.364702	34.123273	-5.107869	0.000000	6.454018	-5.006240	1.343209	24.479268	0.427244	38.725610	-5.299826	0.000000	-0.005750	0.740789	0.978391	-0.010679	0.985249	1.039540	-0.009447	1.801153	1.039540	-0.006572	1.801153	0.856092	-0.005340	1.510616	0.794943	-0.003286	1.147481	0.733793	-0.041072	8.379948	5.441516	0.000000	0.000000	-0.621289	-4.955241	-3.678792	11.667745	-27.983734	60.372761	69.438931	29.448491	1.055085	15.139233	21.751275	11.188043	201.525226	0.132944	1.713339	-69.012638	-23.943585
3.087719	5.420251	3.537621	88.475607	0.171957	1.007130	0.473668	5.088240	3.936658	4.724086	20.981958	0.366204	34.339476	-5.242935	0.000000	6.208899	-4.917793	1.339960	24.354544	0.425067	38.886738	-5.292604	0.000000	-0.006962	0.725846	1.005232	-0.012929	0.965375	1.068059	-0.011438	1.764821	1.068059	-0.007957	1.764821	0.879578	-0.006465	1.480145	0.816751	-0.003978	1.124335	0.753924	-0.049730	8.210913	5.590799	0.000000	0.000000	0.509992	-4.600226	-4.571142	11.166940	-27.982403	59.914068	69.595709	31.131003	1.450702	15.109096	21.572558	11.178488	201.600561	0.134861	1.717845	-68.969072	-23.912209
3.105263	5.370799	3.649360	88.658640	0.171647	1.006996	0.472288	4.906389	3.908045	4.657081	21.020241	0.366872	34.526462	-5.408955	0.000000	5.951983	-4.839775	1.413106	24.199057	0.422353	39.077726	-5.237861	0.000000	-0.006414	0.713086	1.032266	-0.011912	0.948404	1.096782	-0.010538	1.733797	1.096782	-0.007331	1.733797	0.903232	-0.005956	1.454125	0.838716	-0.003665	1.104570	0.774199	-0.045816	8.066571	5.741152	0.000000	0.000000	1.671771	-4.298900	-5.617416	10.626718	-28.012534	59.502238	69.758157	32.613159	1.814731	15.002849	21.383265	11.212897	201.745999	0.136692	1.711240	-68.932792	-23.881621
3.122807	5.335061	3.762795	88.956422	0.171113	1.006954	0.470858	4.679869	3.881016	4.498390	21.001713	0.366549	34.664045	-5.602343	0.000000	5.690023	-4.766879	1.573941	24.003956	0.418948	39.259237	-5.124379	0.000000	-0.003048	0.701652	1.060084	-0.005661	0.933197	1.126340	-0.005008	1.705996	1.126340	-0.003484	1.705996	0.927574	-0.002831	1.430808	0.861319	-0.001742	1.086859	0.795063	-0.021773	7.937225	5.895871	0.000000	0.000000	2.848540	-4.115704	-6.869765	10.006763	-28.061160	59.074963	69.891638	34.349980	2.152480	14.763545	21.212681	11.298856	202.098572	0.138203	1.708433	-68.908165	-23.856154
3.140351	5.327366	3.871200	89.380052	0.170342	1.007028	0.469395	4.410275	3.867962	4.218540	20.912234	0.364987	34.737333	-5.801248	0.000000	5.443195	-4.706563	1.882112	23.796780	0.415332	39.387659	-5.018599	0.000000	0.005562	0.692934	1.083555	0.010329	0.921602	1.151277	0.009138	1.684800	1.151277	0.006357	1.684800	0.948111	0.005165	1.413031	0.880389	0.003178	1.073355	0.812666	0.039729	7.838609	6.026409	0.000000	0.000000	3.987053	-4.022978	-8.292242	9.332110	-28.144797	58.767973	70.058330	35.825838	2.306413	14.110460	21.060699	11.437130	202.645667	0.139077	1.699099	-68.895993	-23.839414
